<?xml version="1.0" encoding="UTF-8" standalone="no"?>
<!-- Created with Inkscape (http://www.inkscape.org/) -->

<svg
   xmlns:dc="http://purl.org/dc/elements/1.1/"
   xmlns:cc="http://creativecommons.org/ns#"
   xmlns:rdf="http://www.w3.org/1999/02/22-rdf-syntax-ns#"
   xmlns:svg="http://www.w3.org/2000/svg"
   xmlns="http://www.w3.org/2000/svg"
   xmlns:sodipodi="http://sodipodi.sourceforge.net/DTD/sodipodi-0.dtd"
   xmlns:inkscape="http://www.inkscape.org/namespaces/inkscape"
   width="134.64566"
   height="134.64566"
   id="svg2998"
   version="1.1"
   inkscape:version="0.48.0 r9654"
   viewBox="0 0 134.64566 134.64566"
   sodipodi:docname="Template.svg">
  <defs
     id="defs3000" />
  <sodipodi:namedview
     id="base"
     pagecolor="#ffffff"
     bordercolor="#666666"
     borderopacity="1.0"
     inkscape:pageopacity="0.0"
     inkscape:pageshadow="2"
     inkscape:zoom="0.7"
     inkscape:cx="20.580771"
     inkscape:cy="-53.897681"
     inkscape:document-units="px"
     inkscape:current-layer="layer1"
     showgrid="true"
     units="mm"
     inkscape:window-width="1920"
     inkscape:window-height="1017"
     inkscape:window-x="-8"
     inkscape:window-y="-8"
     inkscape:window-maximized="1">
    <inkscape:grid
       type="xygrid"
       id="grid2983" />
  </sodipodi:namedview>
  <metadata
     id="metadata3003">
    <rdf:RDF>
      <cc:Work
         rdf:about="">
        <dc:format>image/svg+xml</dc:format>
        <dc:type
           rdf:resource="http://purl.org/dc/dcmitype/StillImage" />
        <dc:title />
      </cc:Work>
    </rdf:RDF>
  </metadata>
  <g
     inkscape:label="Layer 1"
     inkscape:groupmode="layer"
     id="layer1"
     transform="translate(0,-917.71652)">
    <path
       style="fill:none;stroke:#000000;stroke-width:1.12800002;stroke-miterlimit:4;stroke-opacity:1;stroke-dasharray:none"
       d="m 67,985.36218 133.51765,0 0,133.51772 -133.51765,0 z"
       id="rect3006"
       inkscape:connector-curvature="0" />
    <path
       style="fill:#000000"
       d="m 178.42168,1119.9738 c 0,-0.075 0.2528,-0.4833 0.56177,-0.9076 1.71989,-2.3616 3.35128,-5.0008 3.35128,-5.4218 0,-0.3067 -0.16832,-0.2263 -1.31699,0.6292 -3.05742,2.2772 -7.49767,3.9892 -11.77489,4.54 -1.29906,0.1673 -6.14688,0.098 -7.09291,-0.1012 -0.61009,-0.1285 -0.52174,-0.3144 0.19566,-0.4116 3.02381,-0.4096 4.90059,-0.9424 6.43674,-1.8272 1.06208,-0.6117 1.54988,-1.0682 1.34713,-1.2605 -0.0665,-0.063 -0.5605,-0.3052 -1.09788,-0.5381 -4.81121,-2.0853 -8.96107,-7.9396 -10.88174,-15.3511 -0.55268,-2.1327 -0.41787,-2.1848 0.72596,-0.2809 2.78292,4.6322 5.9002,7.93 9.27122,9.8079 3.19215,1.7783 6.30456,2.0406 9.75291,0.8218 3.69119,-1.3046 5.97612,-3.491 7.04533,-6.7414 0.53876,-1.6378 0.69695,-3.0215 0.61679,-5.3951 -0.0586,-1.7343 -0.14198,-2.3632 -0.53144,-4.0067 -0.25409,-1.0722 -0.57993,-2.3231 -0.72408,-2.7798 -0.41822,-1.3249 -0.0314,-1.0134 1.12384,0.9047 3.52662,5.8558 3.97709,12.234 1.28341,18.1718 -1.41057,3.1095 -3.57224,5.9928 -6.72141,8.9655 -1.17455,1.1087 -1.5707,1.4069 -1.5707,1.1821 z m -57,-0.4587 c -4.494,-0.6199 -8.09793,-2.2608 -11.19719,-5.0979 -2.8491,-2.6082 -5.1421,-6.9501 -5.94608,-11.2593 -0.53684,-2.8774 -0.58315,-8.4135 -0.0903,-10.7965 1.36452,-6.5977 5.24974,-12.5024 11.21566,-17.0455 1.25531,-0.9559 3.50184,-2.4362 3.69722,-2.4362 0.24933,0 0.0528,0.377 -0.62812,1.2047 -0.40228,0.489 -1.30495,1.7339 -2.00594,2.7664 -2.87166,4.2297 -4.54259,7.6329 -5.7232,11.6565 -0.82867,2.8242 -0.96238,3.8901 -0.89988,7.1735 0.049,2.5765 0.086,2.9473 0.41149,4.1295 2.54236,9.2341 10.12991,13.1906 21.03361,10.9679 3.96606,-0.8085 8.17898,-2.6253 11.441,-4.934 1.45673,-1.031 3.59861,-2.8267 7.97434,-6.6854 5.21442,-4.5983 6.92194,-5.9524 8.87143,-7.0353 1.06858,-0.5935 2.59177,-1.1551 3.45466,-1.2736 0.63027,-0.087 0.69363,-0.073 0.52174,0.1122 -0.10761,0.1159 -0.48913,0.3273 -0.84783,0.4697 -1.83102,0.7272 -4.93758,2.8019 -6.91304,4.6168 -1.42874,1.3126 -4.12388,4.2725 -7.499,8.2358 -6.35657,7.4642 -8.74119,9.8188 -11.98521,11.8346 -2.4224,1.5052 -5.43326,2.653 -8.36362,3.1883 -1.50747,0.2754 -5.18296,0.3925 -6.52174,0.2078 z m 2.15218,-10.7589 c -5.16464,-0.9661 -9.61351,-4.2554 -11.02821,-8.1538 -0.8134,-2.2414 -1.09762,-5.227 -0.7829,-8.224 0.44949,-4.2805 2.1724,-9.1908 4.69709,-13.3867 4.80647,-7.9881 11.99436,-13.7654 20.80325,-16.7207 2.16466,-0.7262 2.37903,-0.631 0.85113,0.378 -0.67981,0.4489 -1.76428,1.2522 -2.40993,1.7851 -5.34146,4.4085 -8.493,9.0603 -9.81943,14.494 -0.31398,1.2862 -0.33946,1.6169 -0.34626,4.4931 -0.007,2.923 0.0131,3.1892 0.3414,4.5487 0.44757,1.8533 1.12201,3.9122 1.72118,5.2544 0.74238,1.6631 0.65817,1.7605 -0.81598,0.944 -1.14634,-0.6349 -2.76845,-2.2908 -4.23281,-4.3211 -0.57285,-0.7942 -1.10563,-1.4441 -1.18395,-1.4441 -0.24667,0 -0.17514,3.8789 0.0916,4.9657 0.59121,2.4094 1.99214,4.3876 3.80195,5.3686 0.81172,0.44 1.04216,0.4964 2.22526,0.5449 1.54305,0.063 2.50724,-0.1601 3.9517,-0.9153 2.66238,-1.3921 5.96941,-4.9036 6.96519,-7.3958 0.19405,-0.4857 0.29283,-0.6055 0.37735,-0.4577 0.15665,0.2738 0.14265,3.2304 -0.019,4.0064 -0.44699,2.1462 -1.68634,4.5306 -3.43747,6.6135 -0.54466,0.6478 -0.99028,1.2256 -0.99028,1.2841 0,0.1948 1.51249,-0.066 2.60942,-0.4492 3.7619,-1.3157 8.49849,-4.2526 13.5841,-8.4228 0.97927,-0.803 1.87349,-1.46 1.98717,-1.46 0.30424,0 1.51496,0.8605 1.51496,1.0767 0,0.3119 -5.08086,5.2986 -7.24126,7.1071 -5.73127,4.7976 -12.10207,7.9013 -17.56882,8.5591 -1.6874,0.203 -4.35763,0.1689 -5.64644,-0.072 z m 30.01073,-17.0987 c -4.32988,-3.5749 -9.08409,-5.7374 -13.96725,-6.3531 -2.06914,-0.2609 -5.78539,-0.1488 -7.40218,0.2233 -0.6842,0.1574 -0.35344,-0.1917 0.67437,-0.7119 2.33471,-1.1815 4.46782,-1.619 7.30385,-1.4982 3.68427,0.157 6.80645,1.4785 10.25557,4.3407 1.29365,1.0735 4.75534,4.8044 4.75534,5.1251 0,0.093 -0.0147,0.166 -0.0326,0.163 -0.0179,0 -0.73212,-0.583 -1.58709,-1.2889 z m 2.17405,-0.9587 c -0.30489,-0.283 -0.55435,-0.5953 -0.55435,-0.694 0,-0.2449 2.36243,-1.784 4.32388,-2.817 2.99041,-1.5748 5.67221,-2.5044 8.60171,-2.9816 1.99459,-0.325 5.61396,-0.2203 7.44292,0.2152 1.42218,0.3386 3.61744,1.1512 4.60105,1.703 0.92679,0.5199 1.6759,1.0587 1.59558,1.1477 -0.0375,0.042 -0.58599,-0.092 -1.21885,-0.2979 -1.41631,-0.4596 -3.25025,-0.8832 -4.80281,-1.1095 -1.5408,-0.2245 -6.11395,-0.093 -7.69565,0.2204 -3.72221,0.7386 -7.49898,2.3478 -10.46873,4.4603 -0.52084,0.3705 -1.01975,0.6724 -1.10869,0.6708 -0.0889,0 -0.41117,-0.2344 -0.71606,-0.5174 z m -23.71918,-16.3524 c 0.0374,-0.067 0.55442,-0.4328 1.149,-0.8131 4.86384,-3.1107 9.05462,-7.4197 12.01176,-12.3504 1.85304,-3.0897 3.58939,-7.6464 4.26454,-11.1913 0.42362,-2.2242 0.49153,-5.3885 0.15426,-7.1871 -0.83753,-4.4664 -3.71848,-7.318 -8.21936,-8.1356 -1.70326,-0.3095 -4.6287,-0.2053 -6.06452,0.2158 -3.8232,1.1214 -7.22657,3.8103 -10.07365,7.9589 l -0.64415,0.9386 -0.0409,-0.5489 c -0.0526,-0.7062 0.2446,-1.6948 1.05046,-3.4944 1.05546,-2.357 2.2169,-4.1557 3.87849,-6.0066 3.31521,-3.6929 7.41452,-5.8112 13.56845,-7.0115 1.16888,-0.228 2.07671,-0.2669 6.19565,-0.2657 4.61774,0 4.92436,0.019 7.10244,0.3974 1.25199,0.2178 2.32579,0.4507 2.38623,0.5176 0.0604,0.067 -0.69979,0.1629 -1.6894,0.2132 -1.98311,0.1008 -2.81762,0.3 -4.03314,0.9625 -0.80756,0.4401 -2.1357,1.8326 -2.1357,2.2392 0,0.1059 0.54294,0.7116 1.20653,1.3461 1.28963,1.2331 3.43911,3.6294 4.43547,4.9449 1.07618,1.4208 2.80861,4.4368 3.6717,6.392 1.37843,3.1226 2.18775,5.8556 2.63744,8.9063 0.23361,1.5847 0.31425,5.4141 0.11408,5.4171 -0.0717,0 -0.34769,-0.6354 -0.61322,-1.4145 -1.03732,-3.0435 -2.59817,-5.8463 -4.32976,-7.7747 -1.62257,-1.8071 -3.15369,-2.8035 -2.88897,-1.8802 0.54429,1.8986 0.75497,6.5022 0.40393,8.8264 -0.49115,3.2519 -1.62796,6.6614 -3.18466,9.5515 -0.86975,1.6148 -1.94762,3.2365 -2.06484,3.1067 -0.0381,-0.042 0.14046,-0.6174 0.39684,-1.2782 0.79058,-2.0379 0.93286,-2.826 0.93286,-5.1679 0,-1.9222 -0.0303,-2.1915 -0.36941,-3.2852 -0.21353,-0.6886 -0.44248,-1.1913 -0.54259,-1.1913 -0.0952,0 -0.62363,0.8358 -1.17418,1.8574 -3.15872,5.8611 -7.63516,10.4527 -13.03357,13.3688 -2.53926,1.3717 -4.69433,2.2593 -4.45813,1.8362 z m -30.23138,-7.646 c -0.10932,-0.1958 0.15425,-1.8345 0.45623,-2.8365 0.88907,-2.9502 3.39718,-5.5662 6.45055,-6.728 0.6361,-0.242 0.93281,-0.4802 1.68508,-1.3527 1.01211,-1.1739 1.86871,-1.7323 2.86957,-1.8705 1.06172,-0.1467 1.13044,0.088 0.18864,0.6434 -1.01889,0.6012 -1.92804,1.5679 -2.46463,2.6205 -0.22597,0.4433 -0.48132,0.8667 -0.56743,0.941 -0.0861,0.074 -0.56745,0.2461 -1.06962,0.3819 -2.87798,0.7779 -5.0121,2.8609 -6.64209,6.483 -0.45791,1.0175 -0.86574,1.7906 -0.9063,1.7179 z m 39.83687,-1.7966 c -0.003,-0.058 0.46114,-1.1629 1.03193,-2.4549 1.1855,-2.6833 2.17437,-5.8217 2.69882,-8.5651 0.31966,-1.6722 0.35821,-2.1768 0.36359,-4.7586 l 0.006,-2.8881 -0.42784,-1.361 c -0.93269,-2.967 -2.34429,-4.4851 -4.80125,-5.1635 -1.22659,-0.3386 -4.67101,-0.3361 -6.02987,0 -3.07882,0.7716 -5.18569,2.0239 -7.78844,4.6296 -0.66285,0.6636 -0.88704,0.8147 -1.00877,0.6799 -0.12173,-0.1347 -0.0486,-0.4046 0.32903,-1.2142 1.70305,-3.6511 5.84733,-6.6148 10.24538,-7.3267 0.66006,-0.1069 1.89201,-0.1482 3.19256,-0.1072 1.93622,0.061 2.22398,0.1058 3.35688,0.5211 1.531,0.5614 2.35717,1.0806 3.36805,2.1167 2.00419,2.0542 2.66024,4.5373 2.37363,8.9838 -0.29998,4.6538 -1.74592,9.1139 -4.36753,13.4717 -0.96664,1.6069 -2.52658,3.7129 -2.54218,3.4321 z m -32.41892,-2.78 c -1.05426,-0.2577 -2.05315,-0.6842 -2.11958,-0.9048 -0.0416,-0.1382 0.34355,-0.1805 1.6437,-0.1805 0.93392,0 1.86138,-0.069 2.06103,-0.1528 1.28357,-0.5402 5.50574,-5.8706 7.34051,-9.2672 0.63904,-1.183 1.56664,-3.4375 1.57195,-3.8205 0.005,-0.3527 0.29295,-0.35 0.76005,0.01 0.77817,0.5949 1.40262,0.8183 2.64139,0.9448 1.28449,0.1312 3.00602,-6e-4 4.26399,-0.3265 0.44837,-0.1162 0.81444,-0.1683 0.81349,-0.1157 -9.1e-4,0.052 -0.77867,0.5443 -1.72826,1.0929 -6.95951,4.0207 -10.89663,7.1457 -12.60952,10.0087 -0.41197,0.6886 -0.79092,1.8549 -0.79092,2.4342 0,0.1757 -0.0928,0.3588 -0.20632,0.407 -0.36734,0.1561 -2.8365,0.07 -3.64151,-0.1267 z m -7.30135,-1.2717 c -0.10926,-0.2895 -0.19865,-0.5683 -0.19865,-0.6196 0,-0.051 -0.38836,-0.9688 -0.86301,-2.0388 L 100,1056.2484 l 0.40767,-0.6013 c 1.69682,-2.5028 2.75874,-4.6456 2.94583,-5.9443 0.0458,-0.3177 0.10845,-0.7157 0.13929,-0.8844 0.0336,-0.1839 0.40736,-0.5598 0.93328,-0.9386 3.58257,-2.5806 6.87422,-6.3546 9.429,-10.8108 2.12866,-3.7129 4.3555,-9.9477 5.15811,-14.442 0.12056,-0.6751 0.25035,-1.2845 0.28842,-1.3543 0.14692,-0.2692 0.30171,0.3824 0.44291,1.8645 0.17615,1.849 -0.005,4.8779 -0.41918,6.9988 -0.39031,1.9999 -0.44105,2.409 -0.27763,2.2383 0.076,-0.079 0.60831,-1.006 1.18281,-2.059 4.68888,-8.5943 11.32187,-14.834 18.85532,-17.7373 1.0374,-0.3999 0.98803,-0.3891 0.98803,-0.2158 0,0.073 -0.61335,0.5403 -1.363,1.0389 -3.66791,2.4396 -6.83909,5.6179 -9.1555,9.176 -0.99477,1.528 -2.63049,5.045 -2.44294,5.2526 0.0823,0.091 0.53735,-0.1452 1.2942,-0.6723 3.88218,-2.7036 8.30079,-5.0645 12.12376,-6.4777 2.52323,-0.9327 6.70187,-1.9574 7.941,-1.9473 0.71312,0.01 0.56035,0.094 -1.81763,1.0532 -7.84728,3.1639 -13.54467,6.9553 -17.67516,11.7622 -1.68304,1.9586 -2.60429,3.3636 -3.64588,5.5602 -0.77459,1.6336 -0.84899,1.7369 -1.86973,2.5954 -1.64352,1.3823 -3.2949,3.2119 -3.66651,4.0623 -0.17751,0.4062 -0.56371,1.6808 -0.85823,2.8324 -0.70767,2.7672 -1.22935,3.9473 -2.30083,5.2048 -0.87777,1.0301 -1.31656,1.2919 -1.13916,0.6797 0.48046,-1.6582 0.30779,-1.8758 -0.89376,-1.1266 -1.15214,0.7184 -3.27123,1.5753 -5.41814,2.1909 -2.27236,0.6516 -3.3367,1.1462 -4.17172,1.9386 -1.02663,0.9741 -1.9865,2.8224 -2.45416,4.7256 -0.28863,1.1746 -0.39423,1.2811 -0.63579,0.641 z m 12.42544,-17.8846 c 0.30738,-0.2916 1.03231,-0.8028 1.61094,-1.1361 0.9738,-0.5609 1.07379,-0.6613 1.34397,-1.3493 0.66727,-1.699 0.89756,-2.4057 0.81408,-2.4982 -0.0486,-0.054 -0.48466,0.3209 -0.96899,0.8328 -0.48434,0.5118 -1.29148,1.2641 -1.79365,1.6718 -0.50218,0.4076 -1.04765,0.943 -1.21217,1.1897 -0.34303,0.5144 -0.80957,1.6608 -0.80957,1.9893 0,0.2525 0.0419,0.2236 1.01539,-0.7 z m 9.87591,4.631 c -0.8038,-0.219 -2.52554,-1.214 -3.36296,-1.9435 l -0.75427,-0.657 0.23253,-0.4443 c 0.27897,-0.533 2.71486,-3.1186 3.28534,-3.4872 l 0.40371,-0.2609 0,1.3618 c 0,0.8567 0.0744,1.5955 0.20072,1.9917 0.69711,2.1875 3.15712,2.486 5.32296,0.646 0.34782,-0.2955 0.65937,-0.5074 0.69236,-0.4708 0.12756,0.1412 -1.09929,1.6154 -1.78126,2.1404 -1.31205,1.01 -3.00726,1.4594 -4.23913,1.1238 z"
       id="path2997"
       inkscape:connector-curvature="0" />
  </g>
</svg>
